<?xml version="1.0" standalone="no"?>
<!DOCTYPE svg PUBLIC "-//W3C//DTD SVG 1.1//EN" "http://www.w3.org/Graphics/SVG/1.1/DTD/svg11.dtd" >
<svg xmlns="http://www.w3.org/2000/svg">
<metadata></metadata>
<defs>
<font id="foundation-iconsgeneralRg" horiz-adv-x="2048" >
<font-face units-per-em="2048" ascent="1706" descent="-342" />
<missing-glyph horiz-adv-x="512" />
<glyph horiz-adv-x="0" />
<glyph horiz-adv-x="0" />
<glyph unicode="&#xd;" horiz-adv-x="682" />
<glyph unicode=" "  horiz-adv-x="512" />
<glyph unicode="&#x09;" horiz-adv-x="512" />
<glyph unicode="&#xa0;" horiz-adv-x="512" />
<glyph unicode="'" d="M133 533q0 -39 29 -68t68 -29q40 0 69 29l829 829q94 94 180 127.5t163.5 11t154.5 -99.5q53 -55 79.5 -110t28 -103.5t-18 -99t-51.5 -93.5t-79 -89l-899 -899q-76 -80 -147 -91q-15 -2 -47 4q-35 5 -86 54q-78 80 -70 151q6 66 80 140l758 757q33 34 56 52t52 26 q6 2 12.5 1.5t9.5 -2t7.5 -4t7.5 -3.5q23 -23 -13 -78q-19 -27 -59 -67l-696 -697l135 -137l698 698q139 139 141 254q1 90 -71 162q-66 68 -154 69q-124 2 -264 -138l-757 -758q-121 -122 -134 -252q-8 -66 16 -138q32 -94 109 -171q113 -115 252 -115h22q7 0 21 2 q131 18 256 143l899 899q146 146 189 297q30 109 6 213q-32 136 -154 258q-176 174 -375.5 164.5t-394.5 -202.5l-829 -830q-29 -29 -29 -67z" />
<glyph unicode="," d="M47 1264v-1237q0 -50 36 -85.5t85 -35.5h1712q51 0 86 35t35 86v1237q0 51 -35 85.5t-86 34.5h-1712q-49 0 -85 -35t-36 -85zM287 145v1000h1474v-1000h-1474zM805 305v666q289 -167 575 -332q-291 -170 -575 -334z" />
<glyph unicode="-" d="M74 1489v-1688q0 -45 31.5 -76.5t76.5 -31.5h1688q47 0 78.5 31.5t31.5 76.5v1688q0 45 -31.5 76.5t-78.5 31.5h-1688q-45 0 -76.5 -31.5t-31.5 -76.5zM696 823q-85 0 -144.5 61t-59.5 146q0 86 59 145.5t145 59.5t146.5 -59.5t60.5 -145.5t-60.5 -146.5t-146.5 -60.5z M1337 823q-85 0 -144.5 61t-59.5 146q0 86 59 145.5t145 59.5t146.5 -59.5t60.5 -145.5t-60.5 -146.5t-146.5 -60.5zM1690 588q0 -134 -53 -256.5t-142 -210.5t-212 -140.5t-257 -52.5t-256.5 52.5t-211 140.5t-141 210.5t-52.5 256.5h1325z" />
<glyph unicode="." d="M113 1403v-1516q0 -47 31.5 -79.5t78.5 -32.5h1602q47 0 78.5 32.5t31.5 79.5v1516q0 48 -31.5 80.5t-78.5 32.5h-1602q-47 0 -78.5 -32.5t-31.5 -80.5zM336 340v950h1376v-950h-1376z" />
<glyph unicode="/" d="M37 1270v-1250q0 -51 36 -86.5t85 -35.5h1732q49 0 85 35.5t36 86.5v1250q0 51 -36 87t-85 36h-1732q-49 0 -85 -36t-36 -87zM281 141v1008h1486v-1008h-1486zM377 412l207 172q26 20 59.5 18.5t56.5 -24.5l101 -101l221 344q19 28 50 37t60 -3.5t42 -43.5l131 -276 l251 444q19 33 53.5 42t65.5 -9q30 -17 39.5 -51.5t-6.5 -67.5l-336 -588q-28 -47 -78 -43q-54 0 -75 49l-136 285l-194 -303q-22 -34 -64 -39h-10q-34 0 -59 25l-121 120l-148 -120q-27 -24 -63 -21.5t-59 31.5q-24 28 -20.5 64t32.5 59z" />
<glyph unicode="0" d="M2 1477v-1663q0 -53 36.5 -89t88.5 -36h1794q52 0 88.5 36t36.5 89v1663q0 53 -36.5 89t-88.5 36h-1794q-52 0 -88.5 -36t-36.5 -89zM254 -61v1413h1540v-1413h-1540zM422 545v626h1200v-626h-1200zM422 96h340v340h-340v-340zM852 96h340v340h-340v-340zM1282 96h340 v340h-340v-340z" />
<glyph unicode="1" d="M1030 1622q-10 0 -31 -1t-30 -1v-367q0 -11 -12 -28t-33 -17t-32 17t-11 28v359q-34 -4 -113 -23v-336q0 -11 -12 -28t-33 -17t-33 17t-12 28v303q-52 -23 -74 -45q-24 -24 -24 -36v-646h-105v97h-80q-35 0 -58.5 -23.5t-23.5 -56.5v-766q0 -35 23.5 -58.5t58.5 -23.5 h477v-107q-204 -7 -342 -30q-249 -40 -350 -91q-4 -2 -14.5 -7t-14 -7t-11.5 -6.5t-10.5 -7.5t-6.5 -8.5t-5 -10.5t-1 -12.5t2 -15.5q11 -35 47 -35h1728q34 0 45 35q4 12 4 20.5t-1 14t-8.5 11t-12.5 8.5t-19.5 10t-23.5 12q-39 19 -126 45q-236 65 -578 75v107h477 q35 0 57.5 23.5t22.5 58.5v766q0 34 -22.5 57t-57.5 23h-80v-97h-107v646q0 12 -21 36q-23 23 -73 48v-306q0 -11 -12 -28t-33 -17t-32 17t-11 28v338q-63 15 -113 21v-359q0 -11 -12 -28t-33 -17t-32 17t-11 28v367q-8 0 -25.5 1t-25.5 1zM475 160v520h105v-305 q0 -13 26 -34q24 -21 79 -44q132 -55 347 -55q124 0 204 16q149 28 206 83q22 22 22 34v305h107v-520h-1096z" />
<glyph unicode="2" d="M1927 1552h-1818q-41 0 -69 -27.5t-28 -68.5t28 -68.5t69 -27.5h213l260 -742l-326 -405q-39 -45 -12 -100.5t86 -55.5h1478q41 0 69 28t28 67q0 41 -28 68.5t-69 27.5h-1278l172 213q4 -2 5 -2h1069q34 0 61 23.5t33 58.5l153 899q7 45 -22 78.5t-74 33.5zM526 1360h353 l18 -158h-315zM1008 1360h397l-19 -158h-360zM1516 1202l18 158h281l-27 -158h-272zM627 1073h284l19 -147h-252zM1040 1073h332l-18 -147h-295zM1483 926l16 147h266l-24 -147h-258zM723 799h221l17 -148h-187zM1073 799h266l-16 -148h-233zM1452 651l16 148h250l-24 -148 h-242zM221 -131q0 -59 43.5 -102t102.5 -43t102 43t43 102t-43 102t-102 43q-60 0 -103 -43t-43 -102zM1552 -131q0 -59 43 -102t103 -43q59 0 102 43t43 102t-43 102t-102 43q-62 0 -104 -42.5t-42 -102.5z" />
<glyph unicode="3" d="M31 1542v-1796q0 -39 27.5 -66.5t68.5 -27.5h1599q41 0 69 27.5t28 66.5v51h137q25 0 42 17.5t17 42.5v176q0 26 -17 43.5t-42 17.5h-137v170h137q25 0 42 17.5t17 42.5v178q0 24 -17 41.5t-42 17.5h-137v170h137q25 0 42 17.5t17 42.5v178q0 24 -17 41.5t-42 17.5h-137 v170h137q25 0 42 17t17 42v179q0 24 -17 41.5t-42 17.5h-137v47q0 41 -28 68.5t-69 27.5h-1599q-41 0 -68.5 -27.5t-27.5 -68.5zM926 1233q102 0 170.5 -84.5t68.5 -196.5q0 -79 -34.5 -145t-90.5 -102l322 -154q35 -18 35 -57v-258q0 -27 -16.5 -45.5t-39.5 -18.5h-833 q-23 0 -38 18.5t-15 45.5v258q0 19 9.5 35t24.5 22l326 151q-60 36 -95.5 102.5t-35.5 147.5q0 111 70 196t172 85z" />
<glyph unicode="4" d="M1024 1612q-196 0 -375 -77t-308.5 -206.5t-206.5 -308.5t-77 -375t77 -375t206.5 -308.5t308.5 -206.5t375 -77t375 77t308.5 206.5t206.5 308.5t77 375q0 131 -35 256t-97.5 231t-152 195.5t-195.5 152t-231 97.5t-256 35zM1024 -66q-144 0 -275.5 56.5t-227 152 t-152 227t-56.5 275.5q0 192 95.5 356t259.5 259.5t356 95.5t356 -95.5t259.5 -259.5t95.5 -356q0 -144 -56.5 -275.5t-152 -227t-227 -152t-275.5 -56.5zM578 268q-15 -25 0.5 -50t42.5 -25q13 0 24 6l508 305q10 6 16 16l301 504q19 30 -10 59q-10 13 -26.5 15t-30.5 -6 l-504 -301q-9 -5 -16 -17z" />
<glyph unicode="5" d="M113 1380v-1579q0 -53 37 -90t90 -37t91 37t38 90v719q116 53 224 65t216.5 -24.5t198.5 -126.5q81 -81 188 -114t217.5 -22t229.5 57q126 49 235 126q35 25 46 54.5t11 101.5v743q0 90 -58 113q-23 7 -47 1t-73 -29q-239 -116 -418 -114q-191 2 -331 142 q-79 79 -174 104q-185 49 -389 -21q-182 -62 -287 -146q-45 -36 -45 -50z" />
<glyph unicode="6" d="M1032 1591q-145 0 -277.5 -57.5t-228.5 -154t-152.5 -229.5t-56.5 -278v-2q0 -3 1 -8t1 -8v-10q7 -76 17 -125q6 -41 42 -117q67 -140 190.5 -353t208.5 -334q26 -39 46 -63t29 -32t37 -32q65 -55 113 -81q22 -12 32 -12q8 0 32 12q42 21 112 79q26 22 36.5 32t31 34.5 t47.5 63.5q145 212 314 518q109 200 126 285q11 56 16 125v10q0 8 2 16h-2q0 2 2 2q0 146 -56.5 279t-152 229.5t-228 153.5t-278.5 57h-4zM1032 590q-120 0 -204.5 85t-84.5 206q0 120 84 204t205 84t205 -83.5t84 -204.5t-84.5 -206t-204.5 -85z" />
<glyph unicode="7" d="M1024 1612q-196 0 -375 -77t-308.5 -206.5t-206.5 -308.5t-77 -375t77 -375t206.5 -308.5t308.5 -206.5t375 -77t375 77t308.5 206.5t206.5 308.5t77 375q0 131 -35 256t-97.5 231t-152 195.5t-195.5 152t-231 97.5t-256 35zM1024 -66q-144 0 -275.5 56.5t-227 152 t-152 227t-56.5 275.5q0 192 95.5 356t259.5 259.5t356 95.5t356 -95.5t259.5 -259.5t95.5 -356q0 -144 -56.5 -275.5t-152 -227t-227 -152t-275.5 -56.5zM776 961l-100 -101q-14 -14 -14 -37t14 -37l311 -311q14 -14 37 -14h2q23 0 35 14l457 457q16 16 16 37q0 22 -16 35 l-101 100q-15 15 -35.5 15t-35.5 -15l-322 -322l-176 179q-14 14 -36 14t-36 -14z" />
<glyph unicode="8" d="M29 1137v-1162q0 -55 39 -94t94 -39h1732q54 0 92.5 39t38.5 94v1162q0 53 -39 92t-92 39h-882q-91 106 -111 135q-19 45 -67 45h-351q-33 0 -59 -29l-121 -151h-141q-56 0 -94.5 -38.5t-38.5 -92.5z" />
<glyph unicode="9" horiz-adv-x="2052" d="M836 1169h-166q-19 0 -29.5 -17.5t0.5 -37.5l356 -498q11 -14 29 -14q16 0 27 14l354 498q12 17 1.5 36t-30.5 19h-166v447q1 16 -8 24.5t-26 8.5h-308q-14 0 -24 -9.5t-10 -23.5v-447zM0 477v-729q0 -53 37 -90t90 -37h1794q53 0 90 37t37 90v729q0 53 -37 91t-90 38 h-455q-42 0 -75 -24.5t-45 -65.5q-35 -105 -123.5 -169t-198.5 -64t-196.5 64t-122.5 169q-13 41 -46.5 65.5t-76.5 24.5h-455q-53 0 -90 -38t-37 -91z" />
<glyph unicode=";" d="M457 645q0 115 45 220t121 181t181 121t220 45q198 0 350 -120q-35 -28 -105 -77t-83 -59q-21 -13 -17 -38t29 -33l688 -236q21 -6 38 6.5t15 32.5v727q2 23 -22 37q-24 10 -43 -4l-162 -115l-12 -10q-134 134 -307.5 208.5t-368.5 74.5q-156 0 -303 -48.5t-265 -137.5 t-207 -207t-137.5 -265t-48.5 -303q0 -195 76 -373t205 -306.5t307 -204.5t373 -76q260 0 463.5 117t333.5 307q12 18 6 34q-5 23 -19 31l-241 168q-17 12 -38.5 8t-33.5 -22q-78 -119 -202.5 -184.5t-268.5 -65.5q-153 0 -284 76.5t-207 207t-76 283.5z" />
<glyph unicode="=" d="M111 -97q0 -88 59.5 -146t143.5 -58q86 0 145 59l352 353q160 -83 333.5 -88t320.5 56t259 173q113 113 171.5 256.5t58.5 296.5q0 152 -58.5 296t-171.5 257q-113 110 -257 168.5t-295 58.5q-153 0 -297 -58t-257 -169q-121 -121 -181 -284t-44 -346t117 -341l-340 -340 q-59 -59 -59 -144zM737 804q0 123 60 223t159 155t215 55q183 0 308 -125q62 -62 94.5 -142.5t32.5 -165.5q0 -179 -127 -306t-308 -127q-180 0 -307 127t-127 306zM935 876v-114q0 -5 4 -8.5t9 -3.5h162v-162q0 -13 13 -13h113q12 0 12 13v162h162q13 0 13 12v114 q0 12 -13 12h-162v162q0 13 -12 13h-113q-13 0 -13 -13v-162h-162q-13 0 -13 -12z" />
<glyph unicode="\" d="M1012 1583q-156 0 -289.5 -78t-211 -211t-77.5 -290v-209h-194q-27 0 -45.5 -18.5t-18.5 -45.5v-942q0 -27 18.5 -45t45.5 -18h1568q27 0 45.5 18t18.5 45v942q0 27 -18.5 45.5t-45.5 18.5h-217v209q0 156 -77.5 289.5t-211 211.5t-290.5 78zM1012 1241q98 0 168.5 -69 t70.5 -166v-211h-477v209q0 98 70 167.5t168 69.5z" />
<glyph unicode="`" d="M1034 1245h-2q-18 0 -31.5 12.5t-15.5 30.5l-39 283v22q4 32 28 53t58 23h2q34 -2 58 -23t28 -53q4 -12 0 -22l-37 -283q-4 -19 -17.5 -31t-31.5 -12zM393 1286l172 -225q14 -19 12 -38.5t-15.5 -30.5t-31 -14t-34.5 11l-228 172l-8 8q-26 27 -25 67t33 67q29 23 66 17.5 t59 -34.5zM1798 1161l-225 -172q-18 -14 -39 -11t-33 19q-22 33 0 64l172 225q23 30 59.5 35t65.5 -18q31 -23 36.5 -59.5t-17.5 -65.5q-11 -11 -19 -17zM551 702q0 98 38 187.5t102.5 155t153.5 104.5t187 39h2q98 0 186.5 -38t156.5 -105q33 -33 59 -72t44 -82t28 -91 t10 -98q-2 -6 -2 -12v-6q-5 -53 -14 -92.5t-23 -75t-37 -78.5q-14 -26 -48 -84.5t-51 -89.5q-9 -19 -30.5 -66t-34.5 -75t-32 -61t-35 -51q-19 -20 -42 -25q-7 0 -31 -1t-34 -1h-140q-11 0 -34.5 1t-30.5 1q-12 2 -22.5 8t-21.5 19t-18 22t-17.5 29.5t-14.5 28t-14.5 31 t-11.5 26.5q-57 125 -104 204q-60 101 -88 165q-18 41 -24 81q-7 39 -12 84v18zM1595 516l252 -33q22 -2 38.5 -14.5t24 -32.5t5.5 -43q-4 -33 -29.5 -52t-58.5 -15q-14 0 -21 6l-235 98q-17 8 -24 24.5t-1 34.5q14 32 49 27zM233 477l246 33q27 3 40 -15t7.5 -40t-24.5 -29 l-228 -96q-1 0 -3 -0.5t-3.5 -1t-3.5 -1.5t-3.5 -1.5t-3.5 -1t-3 -0.5q-22 -2 -40.5 5.5t-31 23.5t-14.5 38q-4 33 15.5 57.5t49.5 28.5zM901 -63h264q29 0 48.5 -17.5t19.5 -42.5q0 -24 -19.5 -40.5t-48.5 -16.5h-264q-29 0 -48 16.5t-19 40.5q0 25 19 42.5t48 17.5z M901 -242h264q29 0 48.5 -17t19.5 -42q0 -24 -19.5 -40.5t-48.5 -16.5h-264q-29 0 -48 16.5t-19 40.5q0 16 8.5 29.5t24 21.5t34.5 8z" />
<glyph unicode="a" d="M47 752v-213q0 -20 13.5 -35t33.5 -17l248 -24q25 -86 72 -170l-158 -193q-14 -16 -13 -35.5t15 -33.5l152 -152q14 -14 36 -14q16 0 33 12l193 158q84 -47 170 -72l24 -248q2 -20 17 -33.5t35 -13.5h212q21 0 35.5 13.5t16.5 33.5l24 248q86 25 170 72l193 -158 q15 -12 33 -12q22 0 36 14l152 152q14 14 15 33.5t-13 35.5l-158 193q47 84 72 170l248 24q20 2 33.5 17t13.5 35v213q0 20 -13.5 34.5t-33.5 16.5l-248 24q-25 86 -72 170l158 193q14 16 13 36t-15 34l-152 151q-14 14 -36 14q-20 0 -33 -12l-193 -158q-84 47 -170 72 l-24 248q-2 20 -17 33.5t-35 13.5h-212q-21 0 -35.5 -13.5t-16.5 -33.5l-24 -248q-86 -25 -170 -72l-193 158q-17 12 -33 12q-22 0 -36 -14l-152 -151q-14 -15 -15 -34.5t13 -35.5l158 -193q-47 -84 -72 -170l-248 -24q-20 -2 -33.5 -16.5t-13.5 -34.5zM1024 356 q-120 0 -204.5 84.5t-84.5 204.5t84.5 204.5t204.5 84.5t204.5 -84.5t84.5 -204.5t-84.5 -204.5t-204.5 -84.5z" />
<glyph unicode="b" d="M598 1528q-109 0 -208.5 -43t-172 -115.5t-115.5 -172.5t-43 -208q0 -89 17 -172.5t41.5 -145.5t65.5 -129.5t73.5 -111t81.5 -102.5l27 -31q61 -76 223 -213q41 -34 81 -66.5t84.5 -67t73.5 -56t83 -62t77 -57.5q14 -13 36 -12.5t38 12.5l42 32q203 146 358 277t222 213 l27 31q49 59 81.5 102.5t73.5 111t65.5 129.5t41.5 145.5t17 172.5q0 145 -72.5 269t-197 197t-269.5 73q-127 0 -238 -55.5t-188 -155.5q-77 100 -188 155.5t-238 55.5z" />
<glyph unicode="c" d="M2024 872q0 22 -14.5 36t-33.5 14h-676l-231 651q-11 33 -45 33t-45 -33l-231 -651h-676q-19 0 -33.5 -14t-14.5 -36q0 -21 19 -36l528 -418l-237 -668q-11 -34 16 -53q10 -10 25.5 -11t27.5 7l621 370l621 -370q13 -8 24 -8q17 0 29 12q26 20 16 53l-237 668l528 418 q19 15 19 36z" />
<glyph unicode="d" d="M63 868v-446q0 -20 15 -34.5t35 -14.5h639v-639q0 -21 14.5 -35t34.5 -14h446q21 0 35 14.5t14 34.5v639h639q21 0 35.5 14.5t14.5 34.5v446q0 21 -15 35.5t-35 14.5h-639v638q0 21 -14.5 35.5t-34.5 14.5h-446q-21 0 -35 -14.5t-14 -35.5v-638h-639q-21 0 -35.5 -15 t-14.5 -35z" />
<glyph unicode="e" d="M63 868v-446q0 -20 15 -34.5t35 -14.5h1822q21 0 34 14t13 35v446q0 21 -13.5 35.5t-33.5 14.5h-1822q-21 0 -35.5 -15t-14.5 -35z" />
<glyph unicode="f" d="M301 760l-256 -256q-14 -20 -14 -35t14 -35l598 -596q16 -14 33 -14h4q21 0 33 14l1290 1290q14 16 14 35t-14 33l-256 256q-20 14 -35 14q-16 0 -35 -14l-999 -1001l-307 309l-35 15q-18 0 -35 -15z" />
<glyph unicode="g" d="M649 645l-452 -452q-13 -13 -13 -33q0 -23 13 -35l317 -318q20 -14 35 -14q19 0 33 14l452 453l453 -453q20 -14 35 -14q18 0 32 14l318 318q14 14 14 34t-14 34l-453 452l453 453q14 14 14 34q0 19 -14 33l-318 318q-14 14 -33 14q-20 0 -34 -14l-453 -453l-452 453 q-14 14 -33 14q-21 0 -35 -14l-315 -318q-15 -12 -14.5 -33.5t14.5 -33.5z" />
<glyph unicode="h" d="M68 1366v-205q0 -9 12 -16l946 -539q2 -2 8 -2t8 2l918 539q12 9 22 10q15 0 15 14v197q0 27 -18.5 45.5t-47.5 18.5h-1800q-27 0 -45 -18.5t-18 -45.5zM1980 72q7 0 12 5t5 11v864q0 10 -6 14t-12 4q-4 0 -7 -3l-520 -305q-6 -4 -6 -13q-2 -6 4 -12l518 -559q6 -6 12 -6 zM68 940v-817q0 -8 10 -14h6q9 0 10 4l545 505q6 3 6 13q0 7 -8 12l-545 311q-9 2 -16.5 -1.5t-7.5 -12.5zM92 -117q0 -10 14.5 -16t24.5 -6h1782q10 0 16 10q2 9 -4 16l-622 672q-7 10 -19 2l-209 -121q-20 -14 -41 -14q-20 0 -39 12l-184 105q-10 6 -18 -2l-695 -645 q-6 -4 -6 -13z" />
<glyph unicode="i" d="M274 1292v-303q0 -12 9.5 -20t21.5 -8h1438q12 0 21.5 8t9.5 20v303q0 12 -9.5 20.5t-21.5 8.5h-139v61q0 78 -48.5 124t-132.5 46q-82 0 -130 -46t-48 -124v-61h-41v61q0 78 -48 124t-132 46q-82 0 -130 -46t-48 -124v-61h-41v61q0 78 -48 124t-132 46q-82 0 -130.5 -46 t-48.5 -124v-61h-141q-12 0 -21.5 -8.5t-9.5 -20.5zM956 1143v239q0 33 16 48q12 11 40.5 15t55 -11t26.5 -52v-239q0 -35 -16 -48.5t-54 -13.5q-37 0 -52.5 13.5t-15.5 48.5zM557 1143v239q0 33 15.5 47.5t52.5 14.5q38 0 53.5 -14t15.5 -48v-239q0 -35 -15 -48.5 t-54 -13.5q-37 0 -52.5 13.5t-15.5 48.5zM1356 1143v239q0 33 15.5 47.5t51.5 14.5q39 0 54.5 -14.5t15.5 -47.5v-239q0 -35 -15.5 -48.5t-54.5 -13.5q-37 0 -52 13.5t-15 48.5zM274 799v-1032q0 -12 9.5 -20.5t21.5 -8.5h1438q12 0 21.5 8.5t9.5 20.5v1032q0 12 -9.5 21 t-21.5 9h-1438q-12 0 -21.5 -9t-9.5 -21zM817 408q0 17 -6.5 26t-20.5 12t-40 3q-50 0 -113 -29q-6 -4 -13.5 0t-7.5 10l-14 102q0 13 8 15q66 33 170 33q91 0 147 -39.5t56 -100.5q0 -91 -98 -141q114 -42 114 -145q0 -93 -69 -146t-189 -53q-76 0 -145 27q-10 1 -10 16 l14 100q0 7 7.5 11t13.5 2q56 -25 135 -25q39 0 62.5 16t23.5 43q0 16 -4 27.5t-13.5 19t-18.5 12t-28 8t-32 4.5l-39 3q-15 0 -15 14v101q2 14 15 14q73 6 92 25q18 19 18 35zM1116 365l-14 102q0 9 8 14l176 88h70q14 0 14 -14v-575q0 -15 -14 -15h-123q-16 1 -16 15v403 l-80 -31q-21 0 -21 13z" />
<glyph unicode="j" d="M346 1192v-86q0 -16 16 -16h412q17 0 17 16v410q-1 16 -17 16h-82q-6 0 -12 -6l-328 -322q-6 -6 -6 -12zM354 895v-1104q0 -21 14.5 -35t37.5 -14h1161q20 0 34.5 14.5t14.5 34.5v1686q0 21 -14 35t-35 14h-578q-21 0 -35 -13t-14 -36v-465q0 -29 -19.5 -48.5 t-48.5 -19.5h-466q-23 0 -37.5 -14t-14.5 -35z" />
<glyph unicode="k" d="M236 -156q90 -90 191 -90q140 0 261 162l551 627q68 -31 135 -31q100 0 196.5 43t174.5 123q158 158 158 353q0 18 -4 24.5t-23 25.5l-27 27q-23 20 -43 0q-62 -63 -131 -131q-27 -29 -48.5 -38t-67.5 -9h-27q-19 0 -42 8.5t-47.5 25.5t-47.5 40q-36 35 -56 72t-20 67v26 q0 50 6 66t41 51l131 131q20 20 0 43l-27 27q-2 2 -7 7.5t-6.5 6.5t-5.5 4.5t-6 4t-6.5 2t-8.5 2t-10 0.5q-92 0 -184 -40.5t-169 -117.5q-80 -77 -123 -174.5t-43 -196.5q0 -63 31 -135l-627 -551q-145 -109 -160 -229q-2 -19 -1 -28q-1 -97 87 -194q0 -2 1 -2t1 -2h3z M348 54q0 38 29 67t67 29t66.5 -29t28.5 -66q0 -38 -29 -67t-66 -29q-38 0 -67 28.5t-29 66.5z" />
<glyph unicode="l" d="M1024 1620q-198 0 -378.5 -77.5t-311 -208t-208 -311t-77.5 -378.5t77.5 -378.5t208 -311t311 -208t378.5 -77.5t378.5 77.5t311 208t208 311t77.5 378.5t-77.5 378.5t-208 311t-311 208t-378.5 77.5zM840 889q19 0 35.5 7.5t7.5 21.5q0 2 -1 2t-1 2q15 7 24 16l17 20 q13 16 28 41q-27 42 -71 64q-13 18 -39 10q-22 7 -25 10q-2 2 -4 2q-21 16 -23 17q-17 2 -24 6q-68 42 -90 92q-8 20 -26.5 26.5t-52.5 6.5q-14 0 -40 -2q104 85 227 125q148 -80 271 -80q22 0 39 4q16 2 33.5 11t36 20t30.5 16q37 14 113 -2q38 -10 61 -10q77 -43 147 -103 q-139 -6 -217 -48q-40 -22 -65 -74t-28 -105q-2 -30 -22 -43q-14 -9 -17.5 -22.5t0 -25.5t11 -31t9.5 -29q56 0 76 20l135 -12q27 31 61 35q10 -3 23 -11q39 -33 61 -73l-57 -39q-27 8 -78 43q-20 9 -51 10t-57 -3t-60.5 -9.5t-52.5 -6.5l-8 -16q-13 -15 -25 -18 q-2 -10 -2 -21q0 -4 -2 -10q-30 -46 -30 -97q0 -42 15 -74t41 -48.5t58 -16.5h22q78 0 78 -10q-3 -8 -5 -15t-2 -13.5t0.5 -11.5t2.5 -11t3.5 -9.5t5 -11t5.5 -10.5q7 -14 9 -30t0.5 -26.5l-4.5 -31.5q0 -4 -1.5 -11.5t-1.5 -10.5q-3 -7 -1 -19t3 -19t5 -18t6.5 -17.5 t7 -16.5t6.5 -15q5 -11 16 -35q16 -66 51 -66t85 50q41 46 47 98q1 8 3.5 14.5t7 16t5.5 12.5q3 9 9.5 24t9.5 25v27q24 52 24 76q0 5 1 15t1 14q25 23 41 43l17 24q20 38 -2 51l-31 13q-2 14 22 14q7 0 25 -2l74 45q-4 -142 -55 -272t-148 -232q-63 -69 -136 -118.5 t-145.5 -75.5t-137.5 -37.5t-129 -11.5q-68 0 -144 14q5 10 26 55t35 70q0 30 10 51q17 44 45 63q41 27 72 59t35 50q3 8 6 22.5t5 33t3.5 40t1.5 41.5q0 19 -13.5 34t-41.5 33q-76 46 -115 87q-29 33 -60 45q-28 10 -54.5 12.5t-67 0t-55.5 -2.5q-3 0 -6.5 1t-6.5 1 q-6 8 -28 21q0 3 1 4l5 10q6 6 2 15.5t-14 9.5q-4 0 -11 -1.5t-10 -1.5q-2 11 -9 29t-9 27q10 -8 16 -12.5t19 -14t22 -13.5t21 -9.5t20.5 -4.5t16.5 4.5t13 14.5t6 28q1 9 1 28q0 34 -4 65q6 8 8 16q9 50 33 55q6 3 6 5q5 7 14 8zM735 301l13 -18q17 -27 18 -45t-5 -53 q-2 -19 -5.5 -53t-6.5 -62.5t-6 -62.5t-4 -58q-138 56 -244 164q-98 99 -150 218t-65 237q-5 48 -5 86q0 65 10 124q14 -23 36.5 -46t48.5 -42t52 -33.5t51 -25.5q16 -8 37.5 -15t39.5 -11.5t39.5 -11.5t37.5 -15q2 -2 9.5 -9t12.5 -12q18 -12 37 -31q0 -11 -1.5 -25 t-2.5 -29.5t0 -33.5q1 -14 4 -29t6 -24.5t10 -24.5t10 -20t12.5 -21t10.5 -18z" />
<glyph unicode="m" d="M154 913v-1163q0 -27 18 -45t45 -18h479q27 0 45.5 18t18.5 45v713h551v-713q0 -26 18 -44.5t45 -18.5h477q27 0 45.5 18t18.5 45v1163q0 34 -25 50l-829 643q-20 14 -41 14q-22 0 -39 -14l-803 -643q-24 -19 -24 -50z" />
<glyph unicode="n" d="M66 492v-685q0 -24 16.5 -40.5t40.5 -16.5h661q24 0 40 16t16 41v791q0 23 -16.5 39t-39.5 16h-211q4 278 355 328q23 2 38 23.5t9 44.5l-55 251q-5 20 -19.5 32t-32.5 12q-2 -1 -6 -1q-796 -40 -796 -851zM1087 492v-685q0 -24 17 -40.5t41 -16.5h661q24 0 40 16t16 41 v791q0 23 -16.5 39t-39.5 16h-211q4 278 355 328q22 2 35.5 19.5t13.5 34.5q0 4 -2 14l-55 251q-5 20 -19.5 32t-32.5 12q-2 -1 -6 -1q-797 -40 -797 -851z" />
<glyph unicode="o" d="M1020 1284q-125 0 -208 -101t-83 -237q0 -97 42.5 -177.5t115.5 -123.5l-393 -182q-41 -21 -41 -70v-311q0 -31 18 -53.5t45 -22.5h1006q27 0 46 22.5t19 53.5v311q0 50 -41 70l-389 186q70 44 111 122.5t41 174.5q0 136 -82.5 237t-206.5 101zM453 1051 q-95 0 -159.5 -77.5t-64.5 -180.5q0 -76 33 -137t88 -95l-303 -141q-31 -13 -31 -53v-154q0 -23 15 -40t35 -17h321v237q0 47 22.5 85t59.5 54l127 60q80 77 80 201q0 104 -63.5 181t-159.5 77zM1587 1051q-95 0 -159 -77.5t-64 -180.5q0 -122 80 -199l127 -62 q37 -16 58.5 -54t21.5 -85v-237h323q21 0 35 16.5t14 40.5v154q1 37 -30 53l-299 143q54 33 85 94t31 136q0 103 -64 180.5t-159 77.5z" />
<glyph unicode="p" d="M121 1286v-977q0 -47 31.5 -78.5t78.5 -31.5h547v-170h-131q-12 0 -21.5 -9.5t-9.5 -23.5v-72q0 -14 9 -22t22 -8h754q13 0 22 8t9 22v72q0 14 -9.5 23.5t-21.5 9.5h-131v170h563q47 0 79 31.5t32 78.5v977q0 47 -32 80t-79 33h-1602q-47 0 -78.5 -32.5t-31.5 -80.5z M344 422v752h1376v-752h-1376z" />
<glyph unicode="q" d="M233 1260v-850q0 -41 28 -69t69 -28h1388q41 0 69 28t28 69v850q0 40 -28 68t-69 28h-1388q-41 0 -69 -27.5t-28 -68.5zM426 506v657h1196v-657h-1196zM27 176v-117q0 -19 12 -32l70 -74q11 -14 34 -14h1755q23 0 35 14l74 74q12 12 12 32v117q0 21 -13.5 34t-33.5 13 h-1896q-21 0 -35 -13.5t-14 -33.5zM850 0q-8 0 -8 25v112q0 25 8 25h346q8 0 8 -25v-112q0 -25 -8 -25h-346z" />
<glyph unicode="r" d="M1552 -287q8 0 21 1t18 1q29 4 59 19t48 35l272 270q30 30 30 68q0 49 -52 81l-396 234h-2q-20 12 -55 12q-49 0 -86 -33l-117 -118q-2 -2 -5.5 -4t-7.5 -3.5t-7.5 -2.5t-5.5 -1l-26 6q-26 5 -74 30q-127 64 -283 222q-94 93 -168 195t-90 186q0 19 10 29l100 100 q38 38 38 89q0 27 -13 49l-219 415q-35 54 -82 54q-37 0 -66 -29l-272 -272q-22 -20 -35 -48q-5 -10 -8 -18.5t-5 -13.5t-3 -15.5t-1.5 -13t-1.5 -18.5t-1 -21q0 -8 -1 -13q0 -34 9 -88q24 -160 125 -352q135 -259 389 -509q182 -185 340 -287q286 -189 498 -222 q90 -14 126 -14z" />
<glyph unicode="s" d="M498 1010q-129 0 -235.5 -70t-166 -185.5t-59.5 -248.5q0 -152 78 -279q17 -30 53 -30h1728q33 -1 52 28q63 95 63 209q0 157 -106 261q-90 89 -216 89q-12 0 -36 -2q-27 96 -78.5 180t-124 150t-170 104.5t-207.5 38.5q-141 0 -267 -67.5t-212 -190.5q-45 13 -96 13z " />
<glyph unicode="t" d="M1032 1612q-197 0 -376 -76.5t-308 -206.5t-205.5 -309t-76.5 -375q0 -197 76.5 -376t205.5 -308.5t308 -206t376 -76.5q196 0 375 77t308.5 206.5t206.5 308.5t77 375q0 131 -35 256t-97.5 231t-152 195.5t-195.5 152t-231 97.5t-256 35zM1032 -66q-144 0 -275 56.5 t-226.5 152t-152 227t-56.5 275.5t56.5 275.5t151.5 227t226.5 152t275.5 56.5q193 0 356.5 -95.5t259 -259.5t95.5 -356q0 -144 -56.5 -275.5t-152 -227t-227 -152t-275.5 -56.5zM526 502v286q0 21 14.5 35.5t34.5 14.5h914q20 0 33.5 -14.5t13.5 -35.5v-286 q0 -21 -13.5 -35t-33.5 -14h-914q-20 0 -34.5 14.5t-14.5 34.5z" />
<glyph unicode="u" d="M1010 1386q-27 0 -45.5 -19.5t-18.5 -45.5v-309h-831q-29 0 -47.5 -18.5t-18.5 -47.5v-573q0 -27 18.5 -45.5t47.5 -18.5h831v-309q0 -40 35 -57q32 -18 66 4l927 663q27 21 27 52v2q0 32 -27 51l-927 657q-19 14 -37 14z" />
<glyph unicode="v" d="M1104 1321q0 25 -18 44.5t-46 19.5q-20 0 -39 -13l-925 -661q-27 -21 -27 -54q0 -31 27 -51l925 -659q38 -22 70.5 -3t32.5 56v309h831q27 0 45.5 18.5t18.5 45.5v573q0 29 -18.5 47.5t-45.5 18.5h-831v309z" />
<glyph unicode="w" d="M1686 582q26 -1 45 18t19 47q0 19 -13 35l-664 928q-16 27 -51.5 27t-50.5 -29l-660 -926q-13 -16 -13 -35q0 -27 19 -46.5t45 -18.5h312v-834q0 -27 18 -45t45 -18h574q26 0 44.5 18t18.5 45v834h312z" />
<glyph unicode="x" d="M1758 674q0 27 -19 46t-45 19h-312v832q0 28 -18 46.5t-45 18.5h-574q-27 0 -45 -18t-18 -47v-832h-311q-26 1 -45.5 -18t-19.5 -47q0 -19 13 -35l664 -928q16 -26 51 -26.5t51 26.5l660 928q13 16 13 35z" />
<glyph unicode="y" d="M242 1399v-172q0 -25 17 -42.5t42 -17.5h1446q25 0 42 17.5t17 42.5v172q0 24 -17 41.5t-42 17.5h-490v76q0 25 -17 42t-40 17h-352q-23 0 -40 -17t-17 -42v-76h-490q-25 0 -42 -17t-17 -42zM322 999v-1243q0 -25 17 -42t42 -17h1286q25 0 42 17t17 42v1243 q0 25 -17 42.5t-42 17.5h-1286q-25 0 -42 -17.5t-17 -42.5z" />
<glyph unicode="z" d="M215 1212v-1415q0 -23 14 -38t37 -15h852v168h-737v1173h340q18 1 18 21v334h625v-455h166v569q0 23 -14 37.5t-37 14.5h-754l-4 2h-98q-3 0 -5 -2h-12v-7l-385 -378q-4 -4 -4 -9h-2zM924 399v-247q0 -27 26 -27h355v-354q-1 -27 26 -27h248q27 0 27 27v354h352 q27 0 27 27v247q0 27 -27 27h-352v354q0 27 -27 27h-248q-26 0 -26 -27v-354h-355q-26 0 -26 -27z" />
<glyph unicode="{" d="M848 61q3 0 5.5 1t4.5 1l379 123q11 8 12 9l684 684q11 10 10.5 24.5t-10.5 24.5l-254 256q-10 10 -24 10q-15 0 -25 -10l-24 -25v395q0 23 -15.5 37.5t-38.5 14.5h-753l-4 2h-99q-2 0 -4 -2h-12v-7l-385 -378q-4 -4 -4 -9h-2v-1415q0 -23 14 -38t37 -15h1212 q23 0 38.5 16t15.5 41v492q0 16 -7.5 22t-23.5 -8l-25 -24q-22 -20 -60 -57.5t-52 -51.5v-262h-981v1173h338q18 1 18 21v334h625v-449l-490 -489q-10 -10 -12 -19l-121 -374q-8 -21 4 -34.5t29 -13.5zM956 205l68 211l141 -142z" />
<glyph unicode="}" d="M1049 1608q-118 0 -225.5 -46t-185 -123.5t-123.5 -185t-46 -225.5v-268h-229q-27 0 -45.5 -18.5t-18.5 -45.5v-942q0 -29 18 -46t46 -17h1568q28 0 46 17t18 46v942q0 27 -18.5 45.5t-45.5 18.5h-997v268q0 98 70 168t168 70t167.5 -70t69.5 -168q0 -20 13.5 -34.5 t33.5 -14.5h248q21 0 34 14t13 35q0 156 -78 290t-211.5 212t-289.5 78z" />
<glyph unicode="&#xad;" d="M74 1489v-1688q0 -45 31.5 -76.5t76.5 -31.5h1688q47 0 78.5 31.5t31.5 76.5v1688q0 45 -31.5 76.5t-78.5 31.5h-1688q-45 0 -76.5 -31.5t-31.5 -76.5zM696 823q-85 0 -144.5 61t-59.5 146q0 86 59 145.5t145 59.5t146.5 -59.5t60.5 -145.5t-60.5 -146.5t-146.5 -60.5z M1337 823q-85 0 -144.5 61t-59.5 146q0 86 59 145.5t145 59.5t146.5 -59.5t60.5 -145.5t-60.5 -146.5t-146.5 -60.5zM1690 588q0 -134 -53 -256.5t-142 -210.5t-212 -140.5t-257 -52.5t-256.5 52.5t-211 140.5t-141 210.5t-52.5 256.5h1325z" />
<glyph unicode="&#x2000;" horiz-adv-x="834" />
<glyph unicode="&#x2001;" horiz-adv-x="1669" />
<glyph unicode="&#x2002;" horiz-adv-x="834" />
<glyph unicode="&#x2003;" horiz-adv-x="1669" />
<glyph unicode="&#x2004;" horiz-adv-x="556" />
<glyph unicode="&#x2005;" horiz-adv-x="417" />
<glyph unicode="&#x2006;" horiz-adv-x="278" />
<glyph unicode="&#x2007;" horiz-adv-x="278" />
<glyph unicode="&#x2008;" horiz-adv-x="208" />
<glyph unicode="&#x2009;" horiz-adv-x="333" />
<glyph unicode="&#x200a;" horiz-adv-x="92" />
<glyph unicode="&#x2010;" d="M74 1489v-1688q0 -45 31.5 -76.5t76.5 -31.5h1688q47 0 78.5 31.5t31.5 76.5v1688q0 45 -31.5 76.5t-78.5 31.5h-1688q-45 0 -76.5 -31.5t-31.5 -76.5zM696 823q-85 0 -144.5 61t-59.5 146q0 86 59 145.5t145 59.5t146.5 -59.5t60.5 -145.5t-60.5 -146.5t-146.5 -60.5z M1337 823q-85 0 -144.5 61t-59.5 146q0 86 59 145.5t145 59.5t146.5 -59.5t60.5 -145.5t-60.5 -146.5t-146.5 -60.5zM1690 588q0 -134 -53 -256.5t-142 -210.5t-212 -140.5t-257 -52.5t-256.5 52.5t-211 140.5t-141 210.5t-52.5 256.5h1325z" />
<glyph unicode="&#x2011;" d="M74 1489v-1688q0 -45 31.5 -76.5t76.5 -31.5h1688q47 0 78.5 31.5t31.5 76.5v1688q0 45 -31.5 76.5t-78.5 31.5h-1688q-45 0 -76.5 -31.5t-31.5 -76.5zM696 823q-85 0 -144.5 61t-59.5 146q0 86 59 145.5t145 59.5t146.5 -59.5t60.5 -145.5t-60.5 -146.5t-146.5 -60.5z M1337 823q-85 0 -144.5 61t-59.5 146q0 86 59 145.5t145 59.5t146.5 -59.5t60.5 -145.5t-60.5 -146.5t-146.5 -60.5zM1690 588q0 -134 -53 -256.5t-142 -210.5t-212 -140.5t-257 -52.5t-256.5 52.5t-211 140.5t-141 210.5t-52.5 256.5h1325z" />
<glyph unicode="&#x2012;" d="M74 1489v-1688q0 -45 31.5 -76.5t76.5 -31.5h1688q47 0 78.5 31.5t31.5 76.5v1688q0 45 -31.5 76.5t-78.5 31.5h-1688q-45 0 -76.5 -31.5t-31.5 -76.5zM696 823q-85 0 -144.5 61t-59.5 146q0 86 59 145.5t145 59.5t146.5 -59.5t60.5 -145.5t-60.5 -146.5t-146.5 -60.5z M1337 823q-85 0 -144.5 61t-59.5 146q0 86 59 145.5t145 59.5t146.5 -59.5t60.5 -145.5t-60.5 -146.5t-146.5 -60.5zM1690 588q0 -134 -53 -256.5t-142 -210.5t-212 -140.5t-257 -52.5t-256.5 52.5t-211 140.5t-141 210.5t-52.5 256.5h1325z" />
<glyph unicode="&#x2013;" horiz-adv-x="1166" d="M74 1489v-1688q0 -45 17 -76.5t41 -31.5h907q25 0 42 31.5t17 76.5v1688q0 45 -17 76.5t-42 31.5h-907q-24 0 -41 -31.5t-17 -76.5zM408 823q-45 0 -77 61t-32 146q0 86 31.5 145.5t77.5 59.5t78.5 -59.5t32.5 -145.5t-32.5 -146.5t-78.5 -60.5zM753 823q-46 0 -78 61 t-32 146q0 86 31.5 145.5t78 59.5t79 -59.5t32.5 -145.5t-32.5 -146.5t-78.5 -60.5zM942 588q0 -134 -28.5 -256.5t-76 -210.5t-114 -140.5t-138.5 -52.5t-137.5 52.5t-113 140.5t-76 210.5t-28.5 256.5h712z" />
<glyph unicode="&#x2014;" horiz-adv-x="2190" d="M74 1489v-1688q0 -45 34 -76.5t82 -31.5h1814q50 0 84 31.5t34 76.5v1688q0 45 -34 76.5t-84 31.5h-1814q-48 0 -82 -31.5t-34 -76.5zM742 823q-91 0 -155 61t-64 146q0 86 63.5 145.5t156 59.5t157.5 -59.5t65 -145.5t-65 -146.5t-158 -60.5zM1431 823q-91 0 -155 61 t-64 146q0 86 63.5 145.5t156 59.5t157.5 -59.5t65 -145.5t-65 -146.5t-158 -60.5zM1810 588q0 -134 -57 -256.5t-152.5 -210.5t-227.5 -140.5t-276 -52.5t-275.5 52.5t-226.5 140.5t-151.5 210.5t-56.5 256.5h1423z" />
<glyph unicode="&#x202f;" horiz-adv-x="333" />
<glyph unicode="&#x205f;" horiz-adv-x="417" />
<glyph unicode="&#xe000;" horiz-adv-x="1635" d="M0 1635h1635v-1635h-1635v1635z" />
</font>
</defs>
</svg>
